<?xml version="1.0" encoding="UTF-8" standalone="no"?>
<svg
   width="171.33919mm"
   height="77.487038mm"
   viewBox="0 0 171.33919 77.487037"
   version="1.1"
   id="svg224"
   inkscape:version="1.1.1 (3bf5ae0, 2021-09-20)"
   sodipodi:docname="block-pull-up-x2.svg"
   xmlns:inkscape="http://www.inkscape.org/namespaces/inkscape"
   xmlns:sodipodi="http://sodipodi.sourceforge.net/DTD/sodipodi-0.dtd"
   xmlns="http://www.w3.org/2000/svg"
   xmlns:svg="http://www.w3.org/2000/svg"
   xmlns:rdf="http://www.w3.org/1999/02/22-rdf-syntax-ns#"
   xmlns:cc="http://creativecommons.org/ns#"
   xmlns:dc="http://purl.org/dc/elements/1.1/">
  <defs
     id="defs218" />
  <sodipodi:namedview
     id="base"
     pagecolor="#ffffff"
     bordercolor="#666666"
     borderopacity="1.0"
     inkscape:pageopacity="0.0"
     inkscape:pageshadow="2"
     inkscape:zoom="0.7"
     inkscape:cx="292.14286"
     inkscape:cy="2.1428571"
     inkscape:document-units="mm"
     inkscape:current-layer="layer2"
     inkscape:document-rotation="0"
     showgrid="false"
     inkscape:snap-global="false"
     inkscape:window-width="1858"
     inkscape:window-height="1016"
     inkscape:window-x="62"
     inkscape:window-y="27"
     inkscape:window-maximized="1"
     fit-margin-top="0"
     fit-margin-left="0"
     fit-margin-right="0"
     fit-margin-bottom="0"
     inkscape:pagecheckerboard="0" />
  <metadata
     id="metadata221">
    <rdf:RDF>
      <cc:Work
         rdf:about="">
        <dc:format>image/svg+xml</dc:format>
        <dc:type
           rdf:resource="http://purl.org/dc/dcmitype/StillImage" />
      </cc:Work>
    </rdf:RDF>
  </metadata>
  <g
     inkscape:groupmode="layer"
     id="layer2"
     inkscape:label="Layer 2"
     transform="translate(-8.0328338,-87.111182)">
    <rect
       rx="4.5213194"
       ry="4.5213194"
       y="104.8873"
       x="58.26897"
       height="59.446335"
       width="89.726997"
       id="rect861"
       style="display:inline;opacity:1;fill:#4affc9;fill-opacity:1;stroke:#777777;stroke-width:0.529167;stroke-linejoin:round;stroke-miterlimit:4;stroke-dasharray:none;stroke-opacity:1" />
    <path
       inkscape:connector-curvature="0"
       id="path865-2-1-2"
       d="M 58.473096,134.87003 H 50.770823"
       style="display:inline;opacity:1;fill:none;stroke:#777777;stroke-width:3.175;stroke-linecap:butt;stroke-linejoin:miter;stroke-miterlimit:4;stroke-dasharray:none;stroke-opacity:1" />
    <g
       id="g279"
       transform="matrix(1.1694556,0,0,1.1694556,375.88101,-357.24846)">
      <path
         class="st0"
         d="m -242.5,411.8 v 11.8 h -5.4 v -11.8 h 5.4 m 1,-1 h -7.4 v 13.8 h 7.4 z"
         id="path265" />
      <path
         d="m -212,425.6 -15.4,-8.7 v 8.5 h -17.4 v -2.7 c 0,-0.2 -0.1,-0.4 -0.3,-0.4 l -2.3,-1.2 5.6,-2.9 c 0.2,-0.1 0.3,-0.3 0.3,-0.5 0,-0.2 -0.1,-0.4 -0.3,-0.4 l -5.7,-2.7 2.4,-1.6 c 0.1,-0.1 0.2,-0.2 0.2,-0.4 v -2.7 h 3.1 l -3.5,-6.1 -3.5,6.1 h 3 v 2.5 l -2.9,2 c -0.1,0.1 -0.2,0.3 -0.2,0.5 0,0.2 0.1,0.3 0.3,0.4 l 5.6,2.6 -5.6,2.9 c -0.2,0.1 -0.3,0.3 -0.3,0.4 0,0.1 0.1,0.4 0.3,0.4 l 2.9,1.5 v 2.4 H -265 v 1.2 h 37.6 v 8.5 l 15.4,-8.7 h 10.5 v -0.8 H -212 Z m -33.3,-20.4 2.2,3.9 h -4.5 z m 19.2,27.7 v -13.8 l 12.3,6.9 z"
         id="path267" />
    </g>
    <path
       inkscape:connector-curvature="0"
       id="path1104"
       d="m 155.64504,134.87003 h -7.70227"
       style="display:inline;opacity:1;fill:none;stroke:#777777;stroke-width:1.5875;stroke-linecap:butt;stroke-linejoin:miter;stroke-miterlimit:4;stroke-dasharray:none;stroke-opacity:1" />
    <text
       xml:space="preserve"
       style="font-style:normal;font-weight:normal;font-size:12.04px;line-height:1.25;font-family:sans-serif;fill:#767675;fill-opacity:1;stroke:none;stroke-width:0.264583"
       x="-101.08534"
       y="97.116936"
       id="text1108"
       transform="rotate(-90)"><tspan
         sodipodi:role="line"
         id="tspan1106"
         x="-101.08534"
         y="97.116936"
         style="fill:#767675;fill-opacity:1;stroke-width:0.264583">on</tspan></text>
    <path
       inkscape:connector-curvature="0"
       id="path16"
       d="m 101.04571,97.083045 v 7.702265"
       style="display:inline;opacity:1;fill:none;stroke:#777777;stroke-width:1.5875;stroke-linecap:butt;stroke-linejoin:miter;stroke-miterlimit:4;stroke-dasharray:none;stroke-opacity:1" />
    <text
       xml:space="preserve"
       style="font-style:normal;font-weight:normal;font-size:12.04px;line-height:1.25;font-family:sans-serif;fill:#767675;fill-opacity:1;stroke:none;stroke-width:0.264583"
       x="6.9393573"
       y="130.52193"
       id="text36"><tspan
         sodipodi:role="line"
         id="tspan34"
         x="6.9393573"
         y="130.52193"
         style="fill:#767675;fill-opacity:1;stroke-width:0.264583">pin[1:0]</tspan></text>
    <text
       xml:space="preserve"
       style="font-style:normal;font-weight:normal;font-size:12.04px;line-height:1.25;font-family:sans-serif;fill:#767675;fill-opacity:1;stroke:none;stroke-width:0.264583"
       x="151.63535"
       y="130.52193"
       id="text87374"><tspan
         sodipodi:role="line"
         id="tspan87372"
         x="151.63535"
         y="130.52193"
         style="fill:#767675;fill-opacity:1;stroke-width:0.264583">[1:0]</tspan></text>
  </g>
  <style
     id="style263">.st0{display:none}.st1{fill:none;stroke:#000;stroke-width:.75;stroke-linejoin:round;stroke-miterlimit:10}.st2{fill:#010002}</style>
</svg>
